<?xml version="1.0" standalone="no"?>
<!DOCTYPE svg PUBLIC "-//W3C//DTD SVG 20010904//EN"
 "http://www.w3.org/TR/2001/REC-SVG-20010904/DTD/svg10.dtd">
<svg version="1.0" xmlns="http://www.w3.org/2000/svg"
 width="512.000000pt" height="512.000000pt" viewBox="0 0 512.000000 512.000000"
 preserveAspectRatio="xMidYMid meet">

<g transform="translate(0.000000,512.000000) scale(0.100000,-0.100000)"
fill="#000000" stroke="none">
<path d="M438 5064 c-187 -45 -338 -198 -383 -386 -22 -92 -22 -944 0 -1036
45 -191 196 -342 387 -387 165 -39 340 7 469 123 l49 44 49 -44 c201 -181 501
-181 702 0 l49 44 49 -44 c201 -181 501 -181 702 0 l49 44 49 -44 c201 -181
501 -181 702 0 l49 44 49 -44 c201 -181 501 -181 702 0 l49 44 49 -44 c94 -85
229 -138 351 -138 235 0 451 172 505 401 22 93 22 944 0 1037 -45 191 -196
342 -387 387 -91 21 -4152 21 -4240 -1z m4212 -240 c39 -12 66 -29 106 -68 84
-85 84 -84 84 -596 0 -512 0 -511 -84 -596 -114 -113 -278 -113 -392 0 -81 82
-84 97 -84 489 0 367 -2 382 -65 411 -42 20 -68 20 -110 0 -63 -29 -65 -44
-65 -411 0 -392 -3 -407 -84 -489 -114 -113 -278 -113 -392 0 -81 82 -84 97
-84 489 0 367 -2 382 -65 411 -42 20 -68 20 -110 0 -63 -29 -65 -44 -65 -411
0 -392 -3 -407 -84 -489 -114 -113 -278 -113 -392 0 -81 82 -84 97 -84 489 0
279 -2 334 -16 362 -16 35 -65 65 -104 65 -39 0 -88 -30 -104 -65 -14 -28 -16
-83 -16 -362 0 -392 -3 -407 -84 -489 -114 -113 -278 -113 -392 0 -81 82 -84
97 -84 489 0 279 -2 334 -16 362 -16 35 -65 65 -104 65 -39 0 -88 -30 -104
-65 -14 -28 -16 -83 -16 -362 0 -392 -3 -407 -84 -489 -80 -79 -173 -102 -286
-68 -102 30 -190 149 -190 257 0 67 -57 127 -120 127 -63 0 -120 -60 -120
-127 0 -143 -134 -273 -280 -273 -115 0 -233 85 -264 190 -24 80 -24 900 0
980 21 71 100 152 170 174 43 13 306 15 2090 15 1833 1 2046 -1 2094 -15z"/>
<path d="M915 4471 c-45 -20 -70 -60 -70 -112 0 -42 5 -53 33 -81 28 -28 39
-33 82 -33 43 0 54 5 82 33 28 28 33 39 33 82 0 42 -5 54 -31 81 -33 33 -92
46 -129 30z"/>
<path d="M103 3064 c-65 -32 -63 -4 -63 -821 0 -811 0 -804 61 -925 41 -80
137 -176 217 -217 124 -63 80 -61 1280 -61 1183 0 1128 -2 1166 52 20 28 20
90 1 128 -33 63 32 60 -1158 60 -1238 0 -1152 -6 -1243 84 -88 88 -84 49 -84
889 0 808 2 779 -65 811 -41 20 -71 20 -112 0z"/>
<path d="M3373 2866 c-94 -30 -179 -110 -210 -199 -17 -49 -18 -120 -18 -1207
0 -1091 1 -1158 18 -1207 24 -70 93 -145 165 -180 l57 -28 730 0 730 0 52 27
c66 35 116 85 151 151 l27 52 0 1185 0 1185 -27 51 c-40 76 -70 107 -140 145
l-63 34 -715 2 c-569 2 -724 -1 -757 -11z m1442 -251 l25 -24 0 -1131 0 -1131
-25 -24 -24 -25 -675 0 -675 0 -28 24 -28 24 0 1132 0 1132 28 24 28 24 675 0
675 0 24 -25z"/>
<path d="M4046 659 c-56 -44 -70 -110 -36 -166 35 -58 102 -78 160 -48 56 29
78 99 51 161 -32 71 -119 97 -175 53z"/>
<path d="M703 1864 c-33 -16 -63 -66 -63 -104 0 -39 30 -88 65 -104 29 -14
141 -16 1010 -16 1056 0 1011 -2 1049 52 20 28 20 90 1 128 -33 63 22 60
-1052 60 -868 0 -982 -2 -1010 -16z"/>
<path d="M1983 864 c-52 -26 -63 -64 -63 -211 0 -171 -14 -218 -84 -289 -54
-54 -122 -84 -189 -84 -46 0 -94 -28 -111 -65 -20 -42 -20 -68 0 -110 31 -66
24 -65 604 -65 455 0 526 2 555 16 35 16 65 65 65 104 0 39 -30 88 -65 104
-28 13 -80 16 -325 16 l-292 0 17 26 c44 68 58 134 62 305 6 190 -3 225 -62
253 -41 20 -71 20 -112 0z"/>
</g>
</svg>
